<?xml version="1.0" encoding="UTF-8"?>
<svg width="100pt" height="100pt" version="1.1" viewBox="0 0 100 100" xmlns="http://www.w3.org/2000/svg">
 <g>
  <path d="m56.25 34.375c0 0.82812-0.32812 1.625-0.91406 2.2109-0.58594 0.58594-1.3828 0.91406-2.2109 0.91406-4.1445 0-8.1172 1.6445-11.047 4.5781-2.9336 2.9297-4.5781 6.9023-4.5781 11.047 0 1.7266-1.3984 3.125-3.125 3.125s-3.125-1.3984-3.125-3.125c0-4.1445-1.6445-8.1172-4.5781-11.047-2.9297-2.9336-6.9023-4.5781-11.047-4.5781-1.7266 0-3.125-1.3984-3.125-3.125s1.3984-3.125 3.125-3.125c4.1445 0 8.1172-1.6445 11.047-4.5781 2.9336-2.9297 4.5781-6.9023 4.5781-11.047 0-1.7266 1.3984-3.125 3.125-3.125s3.125 1.3984 3.125 3.125c0 4.1445 1.6445 8.1172 4.5781 11.047 2.9297 2.9336 6.9023 4.5781 11.047 4.5781 0.82812 0 1.625 0.32812 2.2109 0.91406 0.58594 0.58594 0.91406 1.3828 0.91406 2.2109z"/>
  <path d="m59.375 75c0 0.82812-0.32812 1.625-0.91406 2.2109-0.58594 0.58594-1.3828 0.91406-2.2109 0.91406-3.4531 0-6.25 2.7969-6.25 6.25 0 1.7266-1.3984 3.125-3.125 3.125s-3.125-1.3984-3.125-3.125c0-1.6562-0.66016-3.2461-1.832-4.418s-2.7617-1.832-4.418-1.832c-1.7266 0-3.125-1.3984-3.125-3.125s1.3984-3.125 3.125-3.125c1.6562 0 3.2461-0.66016 4.418-1.832s1.832-2.7617 1.832-4.418c0-1.7266 1.3984-3.125 3.125-3.125s3.125 1.3984 3.125 3.125c0 1.6562 0.66016 3.2461 1.832 4.418s2.7617 1.832 4.418 1.832c0.82812 0 1.625 0.32812 2.2109 0.91406 0.58594 0.58594 0.91406 1.3828 0.91406 2.2109z"/>
  <path d="m87.5 53.125c0 0.82812-0.32812 1.625-0.91406 2.2109-0.58594 0.58594-1.3828 0.91406-2.2109 0.91406-6.9023 0-12.5 5.5977-12.5 12.5 0 1.7266-1.3984 3.125-3.125 3.125s-3.125-1.3984-3.125-3.125c0-3.3164-1.3164-6.4961-3.6602-8.8398s-5.5234-3.6602-8.8398-3.6602c-1.7266 0-3.125-1.3984-3.125-3.125s1.3984-3.125 3.125-3.125c3.3164 0 6.4961-1.3164 8.8398-3.6602s3.6602-5.5234 3.6602-8.8398c0-1.7266 1.3984-3.125 3.125-3.125s3.125 1.3984 3.125 3.125c0 3.3164 1.3164 6.4961 3.6602 8.8398s5.5234 3.6602 8.8398 3.6602c0.82812 0 1.625 0.32812 2.2109 0.91406 0.58594 0.58594 0.91406 1.3828 0.91406 2.2109z"/>
 </g>
</svg>
